<svg viewBox="0 0 20 20" fill="none" xmlns="http://www.w3.org/2000/svg">
<path fill-rule="evenodd" clip-rule="evenodd" d="M9.85474 1.69338C9.95161 1.68489 10.049 1.68489 10.1459 1.69338C10.2574 1.70316 10.3636 1.72693 10.448 1.74581L16.6592 3.12611C16.8262 3.1632 16.9923 3.20007 17.1326 3.24226C17.2893 3.28935 17.4675 3.35776 17.6412 3.48288C17.8865 3.65959 18.0791 3.8997 18.1984 4.17748C18.2829 4.37417 18.311 4.56304 18.323 4.72618C18.3337 4.87235 18.3337 5.04242 18.3337 5.2135V6.19338C18.3337 6.40363 18.3337 6.60846 18.3195 6.78187C18.304 6.97237 18.2673 7.19715 18.152 7.42333C17.9922 7.73694 17.7373 7.99191 17.4236 8.15169C17.1975 8.26694 16.9727 8.30366 16.7822 8.31923C16.7451 8.32226 16.7067 8.32464 16.667 8.32651V13.3402C16.7067 13.3421 16.7451 13.3444 16.7822 13.3475C16.9727 13.363 17.1975 13.3997 17.4236 13.515C17.7373 13.6748 17.9922 13.9298 18.152 14.2434C18.2673 14.4695 18.304 14.6943 18.3195 14.8848C18.3337 15.0582 18.3337 15.2631 18.3337 15.4733V16.1934C18.3337 16.4037 18.3337 16.6085 18.3195 16.7819C18.304 16.9724 18.2673 17.1971 18.152 17.4233C17.9922 17.7369 17.7373 17.9919 17.4236 18.1517C17.1975 18.2669 16.9727 18.3037 16.7822 18.3192C16.6087 18.3334 16.4039 18.3334 16.1936 18.3333H3.80708C3.59676 18.3334 3.39194 18.3334 3.21847 18.3192C3.02798 18.3037 2.8032 18.2669 2.57701 18.1517C2.26341 17.9919 2.00844 17.7369 1.84865 17.4233C1.7334 17.1971 1.69668 16.9724 1.68112 16.7819C1.66694 16.6084 1.66697 16.4036 1.66699 16.1932L1.66699 15.4734C1.66697 15.2631 1.66694 15.0583 1.68112 14.8848C1.69668 14.6943 1.7334 14.4695 1.84865 14.2434C2.00844 13.9298 2.26341 13.6748 2.57701 13.515C2.8032 13.3997 3.02798 13.363 3.21847 13.3475C3.25552 13.3444 3.294 13.3421 3.33366 13.3402V8.3265C3.294 8.32464 3.25552 8.32226 3.21847 8.31923C3.02798 8.30366 2.8032 8.26694 2.57701 8.15169C2.26341 7.9919 2.00844 7.73694 1.84865 7.42333C1.7334 7.19715 1.69668 6.97237 1.68112 6.78187C1.66694 6.60841 1.66697 6.40358 1.66699 6.19326L1.66699 5.21349C1.66697 5.04241 1.66695 4.87235 1.67769 4.72618C1.68967 4.56304 1.71778 4.37417 1.80225 4.17748C1.92154 3.8997 2.11415 3.65959 2.35944 3.48288C2.53311 3.35776 2.7114 3.28934 2.86805 3.24226C3.00841 3.20007 3.17443 3.1632 3.34144 3.12611L9.55268 1.74581C9.63704 1.72693 9.74329 1.70316 9.85474 1.69338ZM5.00033 8.33335V13.3333H7.08366V8.33335H5.00033ZM8.75033 8.33335V13.3333H11.2503V8.33335H8.75033ZM12.917 8.33335V13.3333H15.0003V8.33335H12.917Z" fill="#999B9A"/>
</svg>
