<svg width="112" height="40" viewBox="0 0 112 40" fill="none" xmlns="http://www.w3.org/2000/svg">
<path d="M10.3998 39.1999L0.799805 29.5999H10.3998V39.1999Z" fill="#333736"/>
<path d="M0.799805 5.59981C0.799805 2.94884 2.94884 0.799805 5.5998 0.799805H106.4C109.051 0.799805 111.2 2.94884 111.2 5.5998V24.7998C111.2 27.4508 109.051 29.5998 106.4 29.5998H0.799805V5.59981Z" fill="#4C504F"/>
<path fill-rule="evenodd" clip-rule="evenodd" d="M15.7002 15.5996C15.7002 12.562 18.1626 10.0996 21.2002 10.0996C24.2378 10.0996 26.7002 12.562 26.7002 15.5996C26.7002 18.6372 24.2378 21.0996 21.2002 21.0996C18.1626 21.0996 15.7002 18.6372 15.7002 15.5996ZM21.7002 12.5996C21.7002 12.3235 21.4763 12.0996 21.2002 12.0996C20.9241 12.0996 20.7002 12.3235 20.7002 12.5996V15.5996C20.7002 15.789 20.8072 15.9621 20.9766 16.0468L22.9766 17.0468C23.2236 17.1703 23.5239 17.0702 23.6474 16.8232C23.7709 16.5762 23.6708 16.2759 23.4238 16.1524L21.7002 15.2906V12.5996Z" fill="white"/>
<path d="M37.3568 13.9247C37.3056 13.7263 37.2352 13.5439 37.1456 13.3775C37.056 13.2111 36.9408 13.0671 36.8 12.9455C36.6592 12.8239 36.4928 12.7311 36.3008 12.6671C36.1152 12.5967 35.8976 12.5615 35.648 12.5615C35.2832 12.5615 34.9664 12.6351 34.6976 12.7823C34.4352 12.9295 34.2208 13.1279 34.0544 13.3775C33.888 13.6207 33.7632 13.8991 33.68 14.2127C33.6032 14.5263 33.5648 14.8463 33.5648 15.1727C33.5648 15.4991 33.6032 15.8191 33.68 16.1327C33.7632 16.4463 33.888 16.7279 34.0544 16.9775C34.2208 17.2207 34.4352 17.4159 34.6976 17.5631C34.9664 17.7103 35.2832 17.7839 35.648 17.7839C35.9168 17.7839 36.1536 17.7391 36.3584 17.6495C36.5632 17.5535 36.7392 17.4255 36.8864 17.2655C37.0336 17.0991 37.1488 16.9071 37.232 16.6895C37.3152 16.4719 37.3696 16.2383 37.3952 15.9887H38.5664C38.5408 16.3983 38.4512 16.7727 38.2976 17.1119C38.1504 17.4511 37.9488 17.7455 37.6928 17.9951C37.4368 18.2383 37.136 18.4271 36.7904 18.5615C36.4448 18.6959 36.064 18.7631 35.648 18.7631C35.136 18.7631 34.6752 18.6703 34.2656 18.4847C33.8624 18.2927 33.52 18.0335 33.2384 17.7071C32.9568 17.3807 32.7392 16.9999 32.5856 16.5647C32.4384 16.1295 32.3648 15.6655 32.3648 15.1727C32.3648 14.6863 32.4384 14.2255 32.5856 13.7903C32.7392 13.3551 32.9568 12.9743 33.2384 12.6479C33.52 12.3215 33.8624 12.0623 34.2656 11.8703C34.6752 11.6783 35.136 11.5823 35.648 11.5823C36.032 11.5823 36.3936 11.6367 36.7328 11.7455C37.072 11.8479 37.3696 12.0015 37.6256 12.2063C37.888 12.4047 38.0992 12.6479 38.2592 12.9359C38.4192 13.2239 38.5184 13.5535 38.5568 13.9247H37.3568ZM42.5761 12.5615C42.2113 12.5615 41.8945 12.6351 41.6257 12.7823C41.3633 12.9295 41.1489 13.1279 40.9825 13.3775C40.8161 13.6207 40.6913 13.8991 40.6081 14.2127C40.5313 14.5263 40.4929 14.8463 40.4929 15.1727C40.4929 15.4991 40.5313 15.8191 40.6081 16.1327C40.6913 16.4463 40.8161 16.7279 40.9825 16.9775C41.1489 17.2207 41.3633 17.4159 41.6257 17.5631C41.8945 17.7103 42.2113 17.7839 42.5761 17.7839C42.9409 17.7839 43.2545 17.7103 43.5169 17.5631C43.7857 17.4159 44.0033 17.2207 44.1697 16.9775C44.3361 16.7279 44.4577 16.4463 44.5345 16.1327C44.6177 15.8191 44.6593 15.4991 44.6593 15.1727C44.6593 14.8463 44.6177 14.5263 44.5345 14.2127C44.4577 13.8991 44.3361 13.6207 44.1697 13.3775C44.0033 13.1279 43.7857 12.9295 43.5169 12.7823C43.2545 12.6351 42.9409 12.5615 42.5761 12.5615ZM42.5761 11.5823C43.0881 11.5823 43.5457 11.6783 43.9489 11.8703C44.3585 12.0623 44.7041 12.3215 44.9857 12.6479C45.2673 12.9743 45.4817 13.3551 45.6289 13.7903C45.7825 14.2255 45.8593 14.6863 45.8593 15.1727C45.8593 15.6655 45.7825 16.1295 45.6289 16.5647C45.4817 16.9999 45.2673 17.3807 44.9857 17.7071C44.7041 18.0335 44.3585 18.2927 43.9489 18.4847C43.5457 18.6703 43.0881 18.7631 42.5761 18.7631C42.0641 18.7631 41.6033 18.6703 41.1937 18.4847C40.7905 18.2927 40.4481 18.0335 40.1665 17.7071C39.8849 17.3807 39.6673 16.9999 39.5137 16.5647C39.3665 16.1295 39.2929 15.6655 39.2929 15.1727C39.2929 14.6863 39.3665 14.2255 39.5137 13.7903C39.6673 13.3551 39.8849 12.9743 40.1665 12.6479C40.4481 12.3215 40.7905 12.0623 41.1937 11.8703C41.6033 11.6783 42.0641 11.5823 42.5761 11.5823ZM46.9323 11.7455H48.6219L50.5131 17.1119H50.5323L52.3755 11.7455H54.0459V18.5999H52.9035V13.3103H52.8843L50.9835 18.5999H49.9947L48.0939 13.3103H48.0747V18.5999H46.9323V11.7455ZM55.4827 11.7455H56.6827V18.5999H55.4827V11.7455ZM58.1066 11.7455H59.3738L62.5034 16.7951H62.5226V11.7455H63.665V18.5999H62.3978L59.2778 13.5599H59.249V18.5999H58.1066V11.7455ZM71.0635 18.5999H70.2955L70.1131 17.7935C69.7931 18.1583 69.4731 18.4111 69.1531 18.5519C68.8331 18.6927 68.4651 18.7631 68.0491 18.7631C67.5371 18.7631 67.0763 18.6703 66.6667 18.4847C66.2635 18.2927 65.9211 18.0335 65.6395 17.7071C65.3579 17.3807 65.1403 16.9999 64.9867 16.5647C64.8395 16.1295 64.7659 15.6655 64.7659 15.1727C64.7659 14.6863 64.8395 14.2255 64.9867 13.7903C65.1403 13.3551 65.3579 12.9743 65.6395 12.6479C65.9211 12.3215 66.2635 12.0623 66.6667 11.8703C67.0763 11.6783 67.5371 11.5823 68.0491 11.5823C68.4203 11.5823 68.7723 11.6335 69.1051 11.7359C69.4443 11.8319 69.7451 11.9791 70.0075 12.1775C70.2699 12.3695 70.4875 12.6127 70.6603 12.9071C70.8331 13.2015 70.9419 13.5407 70.9867 13.9247H69.8155C69.7835 13.7007 69.7131 13.5055 69.6043 13.3391C69.5019 13.1663 69.3707 13.0223 69.2107 12.9071C69.0507 12.7919 68.8715 12.7055 68.6731 12.6479C68.4747 12.5903 68.2667 12.5615 68.0491 12.5615C67.6843 12.5615 67.3675 12.6351 67.0987 12.7823C66.8363 12.9295 66.6219 13.1279 66.4555 13.3775C66.2891 13.6207 66.1643 13.8991 66.0811 14.2127C66.0043 14.5263 65.9659 14.8463 65.9659 15.1727C65.9659 15.4991 66.0043 15.8191 66.0811 16.1327C66.1643 16.4463 66.2891 16.7279 66.4555 16.9775C66.6219 17.2207 66.8363 17.4159 67.0987 17.5631C67.3675 17.7103 67.6843 17.7839 68.0491 17.7839C68.3563 17.7903 68.6283 17.7519 68.8651 17.6687C69.1019 17.5791 69.3003 17.4543 69.4603 17.2943C69.6267 17.1279 69.7515 16.9263 69.8347 16.6895C69.9179 16.4527 69.9627 16.1903 69.9691 15.9023H68.1451V14.9903H71.0635V18.5999ZM75.8262 16.3151C75.8262 16.5775 75.871 16.8015 75.9606 16.9871C76.0502 17.1727 76.175 17.3263 76.335 17.4479C76.495 17.5631 76.6774 17.6495 76.8822 17.7071C77.0934 17.7583 77.3206 17.7839 77.5638 17.7839C77.8262 17.7839 78.0502 17.7551 78.2358 17.6975C78.4214 17.6335 78.5718 17.5535 78.687 17.4575C78.8022 17.3615 78.8854 17.2527 78.9366 17.1311C78.9878 17.0031 79.0134 16.8751 79.0134 16.7471C79.0134 16.4847 78.9526 16.2927 78.831 16.1711C78.7158 16.0431 78.5878 15.9535 78.447 15.9023C78.2038 15.8127 77.919 15.7295 77.5926 15.6527C77.2726 15.5695 76.8758 15.4639 76.4022 15.3359C76.1078 15.2591 75.8614 15.1599 75.663 15.0383C75.471 14.9103 75.3174 14.7695 75.2022 14.6159C75.087 14.4623 75.0038 14.2991 74.9526 14.1263C74.9078 13.9535 74.8854 13.7775 74.8854 13.5983C74.8854 13.2527 74.9558 12.9551 75.0966 12.7055C75.2438 12.4495 75.4358 12.2383 75.6726 12.0719C75.9094 11.9055 76.1782 11.7839 76.479 11.7071C76.7798 11.6239 77.0838 11.5823 77.391 11.5823C77.7494 11.5823 78.0854 11.6303 78.399 11.7263C78.719 11.8159 78.9974 11.9535 79.2342 12.1391C79.4774 12.3247 79.6694 12.5551 79.8102 12.8303C79.951 13.0991 80.0214 13.4127 80.0214 13.7711H78.8214C78.7894 13.3295 78.639 13.0191 78.3702 12.8399C78.1014 12.6543 77.759 12.5615 77.343 12.5615C77.2022 12.5615 77.0582 12.5775 76.911 12.6095C76.7638 12.6351 76.6294 12.6831 76.5078 12.7535C76.3862 12.8175 76.2838 12.9071 76.2006 13.0223C76.1238 13.1375 76.0854 13.2815 76.0854 13.4543C76.0854 13.6975 76.159 13.8895 76.3062 14.0303C76.4598 14.1647 76.6582 14.2671 76.9014 14.3375C76.927 14.3439 77.0262 14.3727 77.199 14.4239C77.3782 14.4687 77.5766 14.5199 77.7942 14.5775C78.0118 14.6351 78.223 14.6927 78.4278 14.7503C78.639 14.8015 78.7894 14.8399 78.879 14.8655C79.103 14.9359 79.2982 15.0319 79.4646 15.1535C79.631 15.2751 79.7686 15.4159 79.8774 15.5759C79.9926 15.7295 80.0758 15.8959 80.127 16.0751C80.1846 16.2543 80.2134 16.4335 80.2134 16.6127C80.2134 16.9967 80.1334 17.3263 79.9734 17.6015C79.8198 17.8703 79.615 18.0911 79.359 18.2639C79.103 18.4367 78.8118 18.5615 78.4854 18.6383C78.159 18.7215 77.8262 18.7631 77.487 18.7631C77.0966 18.7631 76.7286 18.7151 76.383 18.6191C76.0374 18.5231 75.7366 18.3759 75.4806 18.1775C75.2246 17.9791 75.0198 17.7263 74.8662 17.4191C74.7126 17.1055 74.6326 16.7375 74.6262 16.3151H75.8262ZM84.1824 12.5615C83.8176 12.5615 83.5008 12.6351 83.232 12.7823C82.9696 12.9295 82.7552 13.1279 82.5888 13.3775C82.4224 13.6207 82.2976 13.8991 82.2144 14.2127C82.1376 14.5263 82.0992 14.8463 82.0992 15.1727C82.0992 15.4991 82.1376 15.8191 82.2144 16.1327C82.2976 16.4463 82.4224 16.7279 82.5888 16.9775C82.7552 17.2207 82.9696 17.4159 83.232 17.5631C83.5008 17.7103 83.8176 17.7839 84.1824 17.7839C84.5472 17.7839 84.8608 17.7103 85.1232 17.5631C85.392 17.4159 85.6096 17.2207 85.776 16.9775C85.9424 16.7279 86.064 16.4463 86.1408 16.1327C86.224 15.8191 86.2656 15.4991 86.2656 15.1727C86.2656 14.8463 86.224 14.5263 86.1408 14.2127C86.064 13.8991 85.9424 13.6207 85.776 13.3775C85.6096 13.1279 85.392 12.9295 85.1232 12.7823C84.8608 12.6351 84.5472 12.5615 84.1824 12.5615ZM84.1824 11.5823C84.6944 11.5823 85.152 11.6783 85.5552 11.8703C85.9648 12.0623 86.3104 12.3215 86.592 12.6479C86.8736 12.9743 87.088 13.3551 87.2352 13.7903C87.3888 14.2255 87.4656 14.6863 87.4656 15.1727C87.4656 15.6655 87.3888 16.1295 87.2352 16.5647C87.088 16.9999 86.8736 17.3807 86.592 17.7071C86.3104 18.0335 85.9648 18.2927 85.5552 18.4847C85.152 18.6703 84.6944 18.7631 84.1824 18.7631C83.6704 18.7631 83.2096 18.6703 82.8 18.4847C82.3968 18.2927 82.0544 18.0335 81.7728 17.7071C81.4912 17.3807 81.2736 16.9999 81.12 16.5647C80.9728 16.1295 80.8992 15.6655 80.8992 15.1727C80.8992 14.6863 80.9728 14.2255 81.12 13.7903C81.2736 13.3551 81.4912 12.9743 81.7728 12.6479C82.0544 12.3215 82.3968 12.0623 82.8 11.8703C83.2096 11.6783 83.6704 11.5823 84.1824 11.5823ZM91.4761 12.5615C91.1113 12.5615 90.7945 12.6351 90.5257 12.7823C90.2633 12.9295 90.0489 13.1279 89.8825 13.3775C89.7161 13.6207 89.5913 13.8991 89.5081 14.2127C89.4313 14.5263 89.3929 14.8463 89.3929 15.1727C89.3929 15.4991 89.4313 15.8191 89.5081 16.1327C89.5913 16.4463 89.7161 16.7279 89.8825 16.9775C90.0489 17.2207 90.2633 17.4159 90.5257 17.5631C90.7945 17.7103 91.1113 17.7839 91.4761 17.7839C91.8409 17.7839 92.1545 17.7103 92.4169 17.5631C92.6857 17.4159 92.9033 17.2207 93.0697 16.9775C93.2361 16.7279 93.3577 16.4463 93.4345 16.1327C93.5177 15.8191 93.5593 15.4991 93.5593 15.1727C93.5593 14.8463 93.5177 14.5263 93.4345 14.2127C93.3577 13.8991 93.2361 13.6207 93.0697 13.3775C92.9033 13.1279 92.6857 12.9295 92.4169 12.7823C92.1545 12.6351 91.8409 12.5615 91.4761 12.5615ZM91.4761 11.5823C91.9881 11.5823 92.4457 11.6783 92.8489 11.8703C93.2585 12.0623 93.6041 12.3215 93.8857 12.6479C94.1673 12.9743 94.3817 13.3551 94.5289 13.7903C94.6825 14.2255 94.7593 14.6863 94.7593 15.1727C94.7593 15.6655 94.6825 16.1295 94.5289 16.5647C94.3817 16.9999 94.1673 17.3807 93.8857 17.7071C93.6041 18.0335 93.2585 18.2927 92.8489 18.4847C92.4457 18.6703 91.9881 18.7631 91.4761 18.7631C90.9641 18.7631 90.5033 18.6703 90.0937 18.4847C89.6905 18.2927 89.3481 18.0335 89.0665 17.7071C88.7849 17.3807 88.5673 16.9999 88.4137 16.5647C88.2665 16.1295 88.1929 15.6655 88.1929 15.1727C88.1929 14.6863 88.2665 14.2255 88.4137 13.7903C88.5673 13.3551 88.7849 12.9743 89.0665 12.6479C89.3481 12.3215 89.6905 12.0623 90.0937 11.8703C90.5033 11.6783 90.9641 11.5823 91.4761 11.5823ZM95.8035 11.7455H97.0707L100.2 16.7951H100.219V11.7455H101.362V18.5999H100.095L96.9747 13.5599H96.9459V18.5999H95.8035V11.7455Z" fill="white"/>
</svg>
