<svg viewBox="0 0 20 20" fill="none" xmlns="http://www.w3.org/2000/svg">
<path d="M15.6985 3.33326L4.30089 3.33325C3.86163 3.33324 3.48261 3.33323 3.17049 3.35873C2.84103 3.38565 2.51335 3.44508 2.19804 3.60574C1.72763 3.84542 1.34518 4.22787 1.1055 4.69828C0.944833 5.01359 0.885403 5.34128 0.858486 5.67073C0.832985 5.98285 0.832996 6.36182 0.833008 6.80107C0.833008 7.18702 1.14588 7.49992 1.53183 7.49992H18.4675C18.8535 7.49992 19.1663 7.18706 19.1663 6.80112C19.1664 6.36184 19.1664 5.98287 19.1409 5.67073C19.114 5.34128 19.0545 5.0136 18.8939 4.69828C18.6542 4.22787 18.2717 3.84542 17.8013 3.60574C17.486 3.44508 17.1583 3.38565 16.8289 3.35873C16.5167 3.33323 16.1378 3.33324 15.6985 3.33326Z" fill="#999B9A"/>
<path fill-rule="evenodd" clip-rule="evenodd" d="M1.28802 9.25742C1.46628 9.16659 1.69963 9.16659 2.16634 9.16659H17.833C18.2997 9.16659 18.5331 9.16659 18.7113 9.25742C18.8681 9.33731 18.9956 9.46479 19.0755 9.62159C19.1663 9.79985 19.1663 10.0332 19.1663 10.4999V13.1987C19.1664 13.638 19.1664 14.017 19.1409 14.3291C19.114 14.6586 19.0545 14.9862 18.8939 15.3016C18.6542 15.772 18.2717 16.1544 17.8013 16.3941C17.486 16.5548 17.1583 16.6142 16.8289 16.6411C16.5168 16.6666 16.1377 16.6666 15.6985 16.6666L4.30075 16.6666C3.86154 16.6666 3.48258 16.6666 3.17049 16.6411C2.84103 16.6142 2.51335 16.5548 2.19803 16.3941C1.72763 16.1544 1.34518 15.772 1.10549 15.3016C0.944833 14.9862 0.885403 14.6586 0.858486 14.3291C0.832984 14.017 0.832996 13.638 0.833008 13.1987V10.4999C0.833008 10.0332 0.833008 9.79985 0.923837 9.62159C1.00373 9.46479 1.13122 9.33731 1.28802 9.25742ZM4.99968 11.6666C4.53944 11.6666 4.16634 12.0397 4.16634 12.4999C4.16634 12.9602 4.53944 13.3333 4.99968 13.3333H9.16634C9.62658 13.3333 9.99968 12.9602 9.99968 12.4999C9.99968 12.0397 9.62658 11.6666 9.16634 11.6666H4.99968Z" fill="#999B9A"/>
</svg>
