<svg viewBox="0 0 20 20" fill="none" xmlns="http://www.w3.org/2000/svg">
<path d="M11.667 2.50033C11.667 2.04009 12.0401 1.66699 12.5003 1.66699H17.5003C17.9606 1.66699 18.3337 2.04009 18.3337 2.50033V7.50033C18.3337 7.96056 17.9606 8.33366 17.5003 8.33366C17.0401 8.33366 16.667 7.96056 16.667 7.50033V4.51217L12.2562 8.92292C11.9308 9.24835 11.4032 9.24835 11.0777 8.92292C10.7523 8.59748 10.7523 8.06984 11.0777 7.7444L15.4885 3.33366H12.5003C12.0401 3.33366 11.667 2.96056 11.667 2.50033Z" fill="currentcolor"/>
<path d="M4.51217 16.667L8.92292 12.2562C9.24835 11.9308 9.24835 11.4032 8.92292 11.0777C8.59748 10.7523 8.06984 10.7523 7.7444 11.0777L3.33366 15.4885L3.33366 12.5003C3.33366 12.0401 2.96056 11.667 2.50033 11.667C2.04009 11.667 1.66699 12.0401 1.66699 12.5003V17.5003C1.66699 17.9606 2.04009 18.3337 2.50033 18.3337H7.50033C7.96056 18.3337 8.33366 17.9606 8.33366 17.5003C8.33366 17.0401 7.96056 16.667 7.50033 16.667H4.51217Z" fill="currentcolor"/>
</svg>
