<svg width="16" height="16" viewBox="0 0 16 16" fill="none" xmlns="http://www.w3.org/2000/svg">
<path d="M11.8923 1.33337H4.10762C3.7562 1.33336 3.453 1.33335 3.2033 1.35376C2.93973 1.37529 2.67759 1.42283 2.42533 1.55136C2.04901 1.74311 1.74305 2.04907 1.5513 2.42539C1.42277 2.67765 1.37523 2.93979 1.35369 3.20336C1.33329 3.45307 1.3333 3.75623 1.33331 4.10765V4.26671C1.33331 4.64008 1.33331 4.82676 1.40598 4.96937C1.46989 5.09481 1.57188 5.1968 1.69732 5.26071C1.83993 5.33337 2.02661 5.33337 2.39998 5.33337H13.6C13.9733 5.33337 14.16 5.33337 14.3026 5.26071C14.4281 5.1968 14.5301 5.09481 14.594 4.96937C14.6666 4.82676 14.6666 4.64008 14.6666 4.26671V4.10766C14.6667 3.75624 14.6667 3.45307 14.6463 3.20336C14.6247 2.93979 14.5772 2.67765 14.4487 2.42539C14.2569 2.04907 13.951 1.74311 13.5746 1.55136C13.3224 1.42283 13.0602 1.37529 12.7967 1.35376C12.547 1.33335 12.2438 1.33336 11.8923 1.33337Z" fill="currentcolor"/>
<path d="M14.6666 7.73337C14.6666 7.36001 14.6666 7.17332 14.594 7.03071C14.5301 6.90527 14.4281 6.80329 14.3026 6.73937C14.16 6.66671 13.9733 6.66671 13.6 6.66671H7.73331C7.35995 6.66671 7.17326 6.66671 7.03065 6.73937C6.90521 6.80329 6.80322 6.90527 6.73931 7.03071C6.66665 7.17332 6.66665 7.36001 6.66665 7.73337L6.66665 13.6C6.66665 13.9734 6.66665 14.1601 6.73931 14.3027C6.80323 14.4281 6.90521 14.5301 7.03065 14.594C7.17326 14.6667 7.35995 14.6667 7.73331 14.6667H11.8924C12.2438 14.6667 12.547 14.6667 12.7967 14.6463C13.0602 14.6248 13.3224 14.5773 13.5746 14.4487C13.951 14.257 14.2569 13.951 14.4487 13.5747C14.5772 13.3224 14.6247 13.0603 14.6463 12.7967C14.6667 12.547 14.6667 12.2438 14.6666 11.8924V7.73337Z" fill="currentcolor"/>
<path d="M4.26665 14.6667C4.64002 14.6667 4.8267 14.6667 4.96931 14.594C5.09475 14.5301 5.19674 14.4281 5.26065 14.3027C5.33331 14.1601 5.33331 13.9734 5.33331 13.6L5.33331 7.73337C5.33331 7.36001 5.33331 7.17332 5.26065 7.03071C5.19674 6.90527 5.09475 6.80329 4.96931 6.73937C4.8267 6.66671 4.64002 6.66671 4.26665 6.66671H2.39998C2.02661 6.66671 1.83993 6.66671 1.69732 6.73937C1.57188 6.80329 1.46989 6.90527 1.40598 7.03071C1.33331 7.17332 1.33331 7.36001 1.33331 7.73337V11.8924C1.3333 12.2438 1.33329 12.547 1.35369 12.7967C1.37523 13.0603 1.42277 13.3224 1.5513 13.5747C1.74305 13.951 2.04901 14.257 2.42533 14.4487C2.67759 14.5773 2.93973 14.6248 3.2033 14.6463C3.45301 14.6667 3.75618 14.6667 4.1076 14.6667H4.26665Z" fill="currentcolor"/>
</svg>
