<svg viewBox="0 0 132 24" fill="none" xmlns="http://www.w3.org/2000/svg">
<path d="M49.7362 19.57C49.2606 19.84 48.7555 20.0926 48.2206 20.3278C47.5052 20.6442 46.768 20.9088 46.0147 21.1195C45.2025 21.3477 44.3766 21.524 43.5419 21.6472C42.655 21.7753 41.7599 21.8389 40.8637 21.8375C39.1562 21.8611 37.4565 21.6041 35.8323 21.0766C34.4647 20.6281 33.1975 19.9173 32.1018 18.984C31.1099 18.1199 30.3184 17.0498 29.7824 15.8484C29.2368 14.6031 28.9617 13.2561 28.9756 11.8965C28.9649 10.5354 29.2289 9.18607 29.7518 7.92935C30.2617 6.71767 31.0339 5.63415 32.0128 4.75682C33.087 3.81355 34.3371 3.09199 35.6912 2.63364C37.3076 2.08979 39.0051 1.82623 40.7103 1.85433C41.5439 1.85585 42.3767 1.90604 43.2045 2.00466C44.0185 2.10277 44.8265 2.24513 45.6251 2.43113C46.3637 2.6047 47.0911 2.82295 47.8033 3.08467C48.258 3.2494 48.7017 3.44308 49.1317 3.66453L47.2541 6.72662C46.3342 6.31526 45.3807 5.98369 44.404 5.73556C43.3853 5.48963 42.3411 5.36502 41.2932 5.36433C40.1838 5.34954 39.0791 5.51003 38.0197 5.83989C37.1049 6.12527 36.2538 6.58471 35.5133 7.19295C34.8345 7.75695 34.2905 8.46562 33.921 9.26707C33.5541 10.0828 33.3678 10.9683 33.3748 11.8628C33.3673 12.7646 33.5678 13.656 33.9608 14.4677C34.3503 15.266 34.9119 15.9681 35.6052 16.5233C36.3589 17.1163 37.2145 17.5666 38.1301 17.8519C39.1815 18.1795 40.2778 18.34 41.379 18.3274C42.6293 18.3351 43.8733 18.1488 45.0665 17.7752C46.0446 17.4669 46.9868 17.0544 47.8767 16.5448L49.7362 19.57Z" fill="white"/>
<path d="M131.626 5.62824C129.996 5.81558 128.404 6.24902 126.904 6.91378C125.413 7.58283 124.114 8.61695 123.128 9.92064L123.036 10.0434V21.7453H118.894V2.48014H123.036V5.84595L123.772 5.29676C124.86 4.48723 126.02 3.78055 127.239 3.18583C128.269 2.68101 129.342 2.26628 130.444 1.94629L131.626 5.62824Z" fill="white"/>
<path d="M70.1109 18.2256V21.6624H53.1421V2.03198H69.8463V5.47902H57.0807V9.45871H68.3876V12.6954H57.0807V18.2256H70.1109Z" fill="white"/>
<path d="M106.716 2.03076H102.519L93.3003 21.6612H97.4481L98.9728 18.3475H110.502L112.076 21.6612H116.208L106.716 2.03076ZM100.473 15.1136L104.655 6.08693L108.95 15.1136H100.473Z" fill="white"/>
<path d="M92.2143 7.70691C91.7209 6.51419 90.9399 5.46221 89.941 4.64488C89.4084 4.20978 88.8291 3.8352 88.2138 3.52806C87.5343 3.18773 86.8246 2.91142 86.0939 2.70271C84.3058 2.2226 82.4595 1.99437 80.6084 2.02463H73.4204V21.6551L80.6361 21.6674C82.4901 21.7013 84.3383 21.4487 86.1154 20.9187C87.5237 20.4957 88.8314 19.7911 89.9594 18.8477C90.9487 17.9932 91.7233 16.918 92.2205 15.7089C92.721 14.4521 92.9722 13.1099 92.96 11.7571C92.9793 10.3712 92.7259 8.99503 92.2143 7.70691ZM88.3519 14.4355C88.0615 15.2136 87.5965 15.9148 86.9928 16.485C86.3423 17.0779 85.5723 17.5247 84.7348 17.7951C83.7198 18.1192 82.6586 18.2746 81.5934 18.2554H77.3597V5.44873H81.5934C82.6572 5.43002 83.7174 5.57913 84.7348 5.89057C85.5668 6.14814 86.3359 6.57659 86.9928 7.1485C87.5949 7.69473 88.0604 8.37467 88.3519 9.13363C88.6635 9.97261 88.8175 10.862 88.8059 11.7569C88.8175 12.6699 88.6637 13.5774 88.3519 14.4355Z" fill="white"/>
<path d="M12.6322 3.04119C15.2914 5.57312 18.197 7.83297 21.3056 9.78706C20.2007 8.13073 18.9755 6.55791 17.6399 5.08132C16.0832 3.31146 14.3911 1.63222 12.67 0C11.6438 0.928426 10.5682 1.90812 9.59138 2.87488C7.37948 4.98958 5.3669 7.3034 3.5791 9.78706C6.2652 8.18868 8.80514 6.35652 11.1694 4.31188C11.6639 3.89457 12.1499 3.46956 12.6322 3.04119Z" fill="#00B278"/>
<path d="M12.6688 10.2149C15.4177 12.4129 18.3302 14.3982 21.3808 16.1536C21.8727 16.4292 22.371 16.6985 22.8896 16.9469C22.2272 16.0763 21.4968 15.265 20.7498 14.4606C18.2444 11.8381 15.5567 9.39599 12.7068 7.15259C11.5429 8.04488 10.3451 8.9747 9.22775 9.9114C6.60989 12.0339 4.18917 14.3887 1.99512 16.947C5.07799 15.4207 8.02272 13.63 10.7962 11.5949C11.428 11.143 12.0522 10.683 12.6688 10.2149Z" fill="#00B278"/>
<path d="M24.8843 24C24.0568 23.0979 23.1617 22.2657 22.2495 21.4427C19.2514 18.8086 16.0784 16.3806 12.7521 14.1755C11.4202 15.0321 10.0685 15.9174 8.77957 16.8242C5.64991 18.9562 2.71225 21.3572 0 24C4.4431 22.1815 8.69993 19.9375 12.711 17.2993C14.4843 18.476 16.2958 19.6024 18.1589 20.6621C20.3248 21.9216 22.5715 23.0367 24.8843 24Z" fill="#00B278"/>
</svg>
