<svg viewBox="0 0 56 56" fill="none" xmlns="http://www.w3.org/2000/svg">
<path fill-rule="evenodd" clip-rule="evenodd" d="M28.0002 2.33301C13.8249 2.33301 2.3335 13.8244 2.3335 27.9997C2.3335 42.175 13.8249 53.6663 28.0002 53.6663C42.1755 53.6663 53.6668 42.175 53.6668 27.9997C53.6668 13.8244 42.1755 2.33301 28.0002 2.33301ZM24.5002 20.9997C24.5002 19.711 23.4555 18.6663 22.1668 18.6663C20.8782 18.6663 19.8335 19.711 19.8335 20.9997V34.9997C19.8335 36.2883 20.8782 37.333 22.1668 37.333C23.4555 37.333 24.5002 36.2883 24.5002 34.9997V20.9997ZM36.1668 20.9997C36.1668 19.711 35.1222 18.6663 33.8335 18.6663C32.5448 18.6663 31.5002 19.711 31.5002 20.9997V34.9997C31.5002 36.2883 32.5448 37.333 33.8335 37.333C35.1222 37.333 36.1668 36.2883 36.1668 34.9997V20.9997Z" fill="currentcolor"/>
</svg>
