<svg viewBox="0 0 20 20" fill="none" xmlns="http://www.w3.org/2000/svg">
<path fill-rule="evenodd" clip-rule="evenodd" d="M13.1985 0.833253H6.80089C6.36161 0.833238 5.98262 0.833226 5.67049 0.858729C5.34103 0.885646 5.01335 0.945076 4.69803 1.10574C4.22763 1.34542 3.84518 1.72787 3.60549 2.19828C3.44483 2.51359 3.3854 2.84128 3.35848 3.17073C3.33298 3.48287 3.33299 3.86183 3.33301 4.3011V15.6987C3.33299 16.138 3.33298 16.517 3.35848 16.8291C3.3854 17.1586 3.44483 17.4862 3.60549 17.8016C3.84518 18.272 4.22763 18.6544 4.69803 18.8941C5.01335 19.0548 5.34103 19.1142 5.67049 19.1411C5.98263 19.1666 6.36159 19.1666 6.80087 19.1666H13.1985C13.6378 19.1666 14.0167 19.1666 14.3289 19.1411C14.6583 19.1142 14.986 19.0548 15.3013 18.8941C15.7717 18.6544 16.1542 18.272 16.3939 17.8016C16.5545 17.4862 16.614 17.1586 16.6409 16.8291C16.6664 16.517 16.6664 16.138 16.6663 15.6988V4.30115C16.6664 3.8619 16.6664 3.48285 16.6409 3.17073C16.614 2.84128 16.5545 2.51359 16.3939 2.19828C16.1542 1.72787 15.7717 1.34542 15.3013 1.10574C14.986 0.945076 14.6583 0.885646 14.3289 0.858729C14.0167 0.833226 13.6377 0.833238 13.1985 0.833253ZM9.99968 13.3333C9.30932 13.3333 8.74968 13.8929 8.74968 14.5833C8.74968 15.2736 9.30932 15.8333 9.99968 15.8333C10.69 15.8333 11.2497 15.2736 11.2497 14.5833C11.2497 13.8929 10.69 13.3333 9.99968 13.3333Z" fill="#999B9A"/>
</svg>
