<svg viewBox="0 0 56 56" fill="none" xmlns="http://www.w3.org/2000/svg">
<path fill-rule="evenodd" clip-rule="evenodd" d="M28.0002 2.33301C13.8249 2.33301 2.3335 13.8244 2.3335 27.9997C2.3335 42.175 13.8249 53.6663 28.0002 53.6663C42.1755 53.6663 53.6668 42.175 53.6668 27.9997C53.6668 13.8244 42.1755 2.33301 28.0002 2.33301ZM22.3996 18.9372C22.1668 19.2481 22.1668 19.8049 22.1668 20.9186V35.0803C22.1668 36.194 22.1668 36.7508 22.3996 37.0617C22.6024 37.3326 22.9128 37.5021 23.2504 37.5262C23.6377 37.5539 24.1061 37.2528 25.0429 36.6506L36.0576 29.5697C36.8705 29.0471 37.277 28.7858 37.4174 28.4535C37.54 28.1632 37.54 27.8357 37.4174 27.5454C37.277 27.2131 36.8705 26.9518 36.0576 26.4293L25.0429 19.3484C24.1061 18.7461 23.6377 18.445 23.2504 18.4727C22.9128 18.4968 22.6024 18.6663 22.3996 18.9372Z" fill="currentcolor"/>
</svg>
