<svg width="16" height="16" viewBox="0 0 16 16" fill="none" xmlns="http://www.w3.org/2000/svg">
<path fill-rule="evenodd" clip-rule="evenodd" d="M11.8923 1.33337H4.10762C3.7562 1.33336 3.453 1.33335 3.2033 1.35376C2.93973 1.37529 2.67759 1.42283 2.42533 1.55136C2.04901 1.74311 1.74305 2.04907 1.5513 2.42539C1.42277 2.67765 1.37523 2.93979 1.35369 3.20336C1.33329 3.45307 1.3333 3.75623 1.33331 4.10765V11.8924C1.3333 12.2438 1.33329 12.547 1.35369 12.7967C1.37523 13.0603 1.42277 13.3224 1.5513 13.5747C1.74305 13.951 2.04901 14.257 2.42533 14.4487C2.67759 14.5773 2.93973 14.6248 3.2033 14.6463C3.45301 14.6667 3.75618 14.6667 4.1076 14.6667H11.8924C12.2438 14.6667 12.547 14.6667 12.7967 14.6463C13.0602 14.6248 13.3224 14.5773 13.5746 14.4487C13.951 14.257 14.2569 13.951 14.4487 13.5747C14.5772 13.3224 14.6247 13.0603 14.6463 12.7967C14.6667 12.547 14.6667 12.2438 14.6666 11.8924V4.10766C14.6667 3.75624 14.6667 3.45307 14.6463 3.20336C14.6247 2.93979 14.5772 2.67765 14.4487 2.42539C14.2569 2.04907 13.951 1.74311 13.5746 1.55136C13.3224 1.42283 13.0602 1.37529 12.7967 1.35376C12.547 1.33335 12.2438 1.33336 11.8923 1.33337ZM6.39981 5.41076C6.33331 5.49958 6.33331 5.65868 6.33331 5.97687V10.0231C6.33331 10.3413 6.33331 10.5004 6.39981 10.5892C6.45776 10.6666 6.54646 10.715 6.6429 10.7219C6.75357 10.7298 6.8874 10.6438 7.15505 10.4717L10.3021 8.44861C10.5344 8.2993 10.6505 8.22465 10.6906 8.12972C10.7257 8.04678 10.7257 7.95318 10.6906 7.87024C10.6505 7.77531 10.5344 7.70066 10.3021 7.55135L7.15505 5.52824C6.8874 5.35617 6.75357 5.27014 6.6429 5.27805C6.54646 5.28494 6.45776 5.33336 6.39981 5.41076Z" fill="currentcolor"/>
</svg>
