<svg viewBox="0 0 20 20" fill="none" xmlns="http://www.w3.org/2000/svg">
<path fill-rule="evenodd" clip-rule="evenodd" d="M1.667 9.99992C1.667 9.53968 2.04009 9.16658 2.50033 9.16658H2.50866C2.9689 9.16658 3.342 9.53968 3.342 9.99992C3.342 10.4602 2.9689 10.8333 2.50866 10.8333H2.50033C2.04009 10.8333 1.667 10.4602 1.667 9.99992Z" fill="#999B9A"/>
<path fill-rule="evenodd" clip-rule="evenodd" d="M5.83366 14.1666C5.83366 13.7063 6.20676 13.3333 6.667 13.3333H6.67533C7.13557 13.3333 7.50866 13.7063 7.50866 14.1666C7.50866 14.6268 7.13557 14.9999 6.67533 14.9999H6.667C6.20676 14.9999 5.83366 14.6268 5.83366 14.1666Z" fill="#999B9A"/>
<path fill-rule="evenodd" clip-rule="evenodd" d="M9.167 17.4999C9.167 17.0397 9.54009 16.6666 10.0003 16.6666H10.0087C10.4689 16.6666 10.842 17.0397 10.842 17.4999C10.842 17.9602 10.4689 18.3333 10.0087 18.3333H10.0003C9.54009 18.3333 9.167 17.9602 9.167 17.4999Z" fill="#999B9A"/>
<path fill-rule="evenodd" clip-rule="evenodd" d="M16.667 9.99992C16.667 9.53968 17.0401 9.16658 17.5003 9.16658H17.5087C17.9689 9.16658 18.342 9.53968 18.342 9.99992C18.342 10.4602 17.9689 10.8333 17.5087 10.8333H17.5003C17.0401 10.8333 16.667 10.4602 16.667 9.99992Z" fill="#999B9A"/>
<path fill-rule="evenodd" clip-rule="evenodd" d="M1.667 14.1666C1.667 13.7063 2.04009 13.3333 2.50033 13.3333H3.75033C4.21057 13.3333 4.58366 13.7063 4.58366 14.1666C4.58366 14.6268 4.21057 14.9999 3.75033 14.9999H2.50033C2.04009 14.9999 1.667 14.6268 1.667 14.1666Z" fill="#999B9A"/>
<path fill-rule="evenodd" clip-rule="evenodd" d="M12.0837 9.99992C12.0837 9.53968 12.4568 9.16658 12.917 9.16658H14.5837C15.0439 9.16658 15.417 9.53968 15.417 9.99992C15.417 10.4602 15.0439 10.8333 14.5837 10.8333H12.917C12.4568 10.8333 12.0837 10.4602 12.0837 9.99992Z" fill="#999B9A"/>
<path fill-rule="evenodd" clip-rule="evenodd" d="M1.667 17.4999C1.667 17.0397 2.04009 16.6666 2.50033 16.6666H6.667C7.12723 16.6666 7.50033 17.0397 7.50033 17.4999C7.50033 17.9602 7.12723 18.3333 6.667 18.3333H2.50033C2.04009 18.3333 1.667 17.9602 1.667 17.4999Z" fill="#999B9A"/>
<path fill-rule="evenodd" clip-rule="evenodd" d="M10.0003 0.833252C10.4606 0.833252 10.8337 1.20635 10.8337 1.66659V6.66658C10.8337 7.12682 10.4606 7.49992 10.0003 7.49992C9.54009 7.49992 9.167 7.12682 9.167 6.66658V1.66659C9.167 1.20635 9.54009 0.833252 10.0003 0.833252Z" fill="#999B9A"/>
<path fill-rule="evenodd" clip-rule="evenodd" d="M14.6404 12.4999C14.6493 12.4999 14.6581 12.4999 14.667 12.4999H16.167C16.1759 12.4999 16.1847 12.4999 16.1936 12.4999C16.4039 12.4999 16.6087 12.4999 16.7822 12.514C16.9727 12.5296 17.1975 12.5663 17.4236 12.6816C17.7372 12.8414 17.9922 13.0963 18.152 13.4099C18.2673 13.6361 18.304 13.8609 18.3195 14.0514C18.3337 14.2249 18.3337 14.4297 18.3337 14.64C18.3337 14.6489 18.3337 14.6577 18.3337 14.6666V16.1666C18.3337 16.1755 18.3337 16.1843 18.3337 16.1932C18.3337 16.4035 18.3337 16.6083 18.3195 16.7818C18.304 16.9723 18.2673 17.1971 18.152 17.4232C17.9922 17.7368 17.7372 17.9918 17.4236 18.1516C17.1975 18.2668 16.9727 18.3036 16.7822 18.3191C16.6087 18.3333 16.4039 18.3333 16.1936 18.3333C16.1847 18.3333 16.1759 18.3333 16.167 18.3333H14.667C14.6581 18.3333 14.6493 18.3333 14.6404 18.3333C14.4301 18.3333 14.2253 18.3333 14.0518 18.3191C13.8613 18.3036 13.6365 18.2668 13.4103 18.1516C13.0967 17.9918 12.8418 17.7368 12.682 17.4232C12.5667 17.1971 12.53 16.9723 12.5145 16.7818C12.5003 16.6083 12.5003 16.4035 12.5003 16.1932C12.5003 16.1843 12.5003 16.1755 12.5003 16.1666V14.6666C12.5003 14.6577 12.5003 14.6489 12.5003 14.64C12.5003 14.4297 12.5003 14.2249 12.5145 14.0514C12.53 13.8609 12.5667 13.6361 12.682 13.4099C12.8418 13.0963 13.0967 12.8414 13.4103 12.6816C13.6365 12.5663 13.8613 12.5296 14.0518 12.514C14.2253 12.4999 14.4301 12.4999 14.6404 12.4999Z" fill="#999B9A"/>
<path fill-rule="evenodd" clip-rule="evenodd" d="M5.00033 9.99992C5.00033 9.53968 5.37343 9.16658 5.83366 9.16658H10.0003C10.4606 9.16658 10.8337 9.53968 10.8337 9.99992V14.1666C10.8337 14.6268 10.4606 14.9999 10.0003 14.9999C9.54009 14.9999 9.167 14.6268 9.167 14.1666V10.8333H5.83366C5.37343 10.8333 5.00033 10.4602 5.00033 9.99992Z" fill="#999B9A"/>
<path fill-rule="evenodd" clip-rule="evenodd" d="M14.6404 1.66658C14.6493 1.66658 14.6581 1.66659 14.667 1.66659H16.167C16.1759 1.66659 16.1847 1.66658 16.1936 1.66658C16.4039 1.66656 16.6087 1.66653 16.7822 1.68071C16.9727 1.69627 17.1975 1.73299 17.4236 1.84824C17.7372 2.00803 17.9922 2.263 18.152 2.5766C18.2673 2.80279 18.304 3.02757 18.3195 3.21806C18.3337 3.39153 18.3337 3.59635 18.3337 3.80667C18.3337 3.81552 18.3337 3.82438 18.3337 3.83325V5.33325C18.3337 5.34212 18.3337 5.35098 18.3337 5.35983C18.3337 5.57015 18.3337 5.77498 18.3195 5.94844C18.304 6.13894 18.2673 6.36372 18.152 6.5899C17.9922 6.90351 17.7372 7.15847 17.4236 7.31826C17.1975 7.43351 16.9727 7.47023 16.7822 7.4858C16.6087 7.49997 16.4039 7.49995 16.1936 7.49992C16.1847 7.49992 16.1759 7.49992 16.167 7.49992H14.667C14.6581 7.49992 14.6493 7.49992 14.6404 7.49992C14.4301 7.49995 14.2253 7.49997 14.0518 7.4858C13.8613 7.47023 13.6365 7.43351 13.4103 7.31826C13.0967 7.15847 12.8418 6.90351 12.682 6.5899C12.5667 6.36372 12.53 6.13894 12.5145 5.94844C12.5003 5.77498 12.5003 5.57015 12.5003 5.35983C12.5003 5.35098 12.5003 5.34212 12.5003 5.33325V3.83325C12.5003 3.82438 12.5003 3.81552 12.5003 3.80667C12.5003 3.59635 12.5003 3.39153 12.5145 3.21806C12.53 3.02757 12.5667 2.80279 12.682 2.5766C12.8418 2.263 13.0967 2.00803 13.4103 1.84824C13.6365 1.73299 13.8613 1.69627 14.0518 1.68071C14.2253 1.66653 14.4301 1.66656 14.6404 1.66658Z" fill="#999B9A"/>
<path fill-rule="evenodd" clip-rule="evenodd" d="M3.80708 1.66658C3.81593 1.66658 3.82479 1.66659 3.83366 1.66659H5.33366C5.34253 1.66659 5.35139 1.66658 5.36024 1.66658C5.57056 1.66656 5.77539 1.66653 5.94885 1.68071C6.13935 1.69627 6.36413 1.73299 6.59031 1.84824C6.90392 2.00803 7.15889 2.263 7.31867 2.5766C7.43392 2.80279 7.47064 3.02757 7.48621 3.21806C7.50038 3.39153 7.50036 3.59635 7.50033 3.80667C7.50033 3.81552 7.50033 3.82438 7.50033 3.83325V5.33325C7.50033 5.34212 7.50033 5.35098 7.50033 5.35983C7.50036 5.57015 7.50038 5.77498 7.48621 5.94844C7.47064 6.13894 7.43392 6.36372 7.31867 6.5899C7.15889 6.90351 6.90392 7.15847 6.59031 7.31826C6.36413 7.43351 6.13935 7.47023 5.94885 7.4858C5.77539 7.49997 5.57056 7.49995 5.36024 7.49992C5.35139 7.49992 5.34253 7.49992 5.33366 7.49992H3.83366C3.82479 7.49992 3.81593 7.49992 3.80708 7.49992C3.59676 7.49995 3.39194 7.49997 3.21847 7.4858C3.02798 7.47023 2.8032 7.43351 2.57701 7.31826C2.26341 7.15847 2.00844 6.90351 1.84865 6.5899C1.7334 6.36372 1.69668 6.13894 1.68112 5.94844C1.66694 5.77498 1.66697 5.57015 1.66699 5.35983C1.667 5.35098 1.667 5.34212 1.667 5.33325V3.83325C1.667 3.82438 1.667 3.81552 1.66699 3.80667C1.66697 3.59635 1.66694 3.39153 1.68112 3.21806C1.69668 3.02757 1.7334 2.80279 1.84865 2.5766C2.00844 2.263 2.26341 2.00803 2.57701 1.84824C2.8032 1.73299 3.02798 1.69627 3.21847 1.68071C3.39194 1.66653 3.59676 1.66656 3.80708 1.66658Z" fill="#999B9A"/>
</svg>
