<svg viewBox="0 0 20 20" fill="none" xmlns="http://www.w3.org/2000/svg">
<path d="M8.57757 1.07709C8.90301 0.751649 9.43065 0.751649 9.75608 1.07709L12.2561 3.57709C12.5815 3.90252 12.5815 4.43016 12.2561 4.7556L9.75608 7.2556C9.43065 7.58103 8.90301 7.58103 8.57757 7.2556C8.25214 6.93016 8.25214 6.40252 8.57757 6.07709L9.65496 4.99969H5.66685C4.95303 4.99969 4.46779 5.00034 4.09271 5.03099C3.72737 5.06084 3.54053 5.11494 3.4102 5.18135C3.0966 5.34114 2.84163 5.59611 2.68184 5.90971C2.61543 6.04004 2.56133 6.22688 2.53148 6.59223C2.50083 6.9673 2.50018 7.45254 2.50018 8.16636V12.9164C2.50018 13.3299 2.50198 13.4559 2.51444 13.5506C2.6129 14.2985 3.20142 14.887 3.94931 14.9854C4.04396 14.9979 4.17001 14.9997 4.58352 14.9997C5.04375 14.9997 5.41685 15.3728 5.41685 15.833C5.41685 16.2933 5.04375 16.6664 4.58352 16.6664L4.52622 16.6664C4.19502 16.6665 3.94964 16.6665 3.73176 16.6378C2.23598 16.4409 1.05896 15.2639 0.862033 13.7681C0.833349 13.5502 0.833416 13.3049 0.833506 12.9737L0.833516 8.13195C0.833505 7.46116 0.833496 6.90749 0.870344 6.45651C0.908615 5.98809 0.990752 5.55751 1.19683 5.15306C1.51641 4.52585 2.02634 4.01592 2.65355 3.69634C3.05799 3.49026 3.48858 3.40813 3.95699 3.36986C4.40799 3.33301 4.96163 3.33302 5.63243 3.33303L9.655 3.33303L8.57757 2.2556C8.25214 1.93016 8.25214 1.40252 8.57757 1.07709Z" fill="currentcolor"/>
<path d="M16.0511 5.01395C15.9564 5.00149 15.8304 4.99969 15.4169 4.99969C14.9566 4.99969 14.5835 4.6266 14.5835 4.16636C14.5835 3.70612 14.9566 3.33303 15.4169 3.33303L15.4742 3.33302C15.8054 3.33293 16.0507 3.33286 16.2686 3.36154C17.7644 3.55847 18.9414 4.7355 19.1383 6.23127C19.167 6.44915 19.167 6.69452 19.1669 7.02571L19.1668 11.8675C19.1669 12.5383 19.1669 13.0919 19.13 13.5429C19.0918 14.0113 19.0096 14.4419 18.8035 14.8463C18.484 15.4735 17.974 15.9835 17.3468 16.303C16.9424 16.5091 16.5118 16.5913 16.0434 16.6295C15.5924 16.6664 15.0387 16.6664 14.3679 16.6664H10.3454L11.4228 17.7437C11.7482 18.0692 11.7482 18.5968 11.4228 18.9223C11.0973 19.2477 10.5697 19.2477 10.2442 18.9223L7.74424 16.4223C7.4188 16.0968 7.4188 15.5692 7.74424 15.2438L10.2442 12.7438C10.5697 12.4183 11.0973 12.4183 11.4228 12.7438C11.7482 13.0692 11.7482 13.5968 11.4228 13.9223L10.3453 14.9997H14.3335C15.0473 14.9997 15.5326 14.999 15.9077 14.9684C16.273 14.9385 16.4598 14.8844 16.5902 14.818C16.9038 14.6582 17.1587 14.4033 17.3185 14.0897C17.3849 13.9593 17.439 13.7725 17.4689 13.4072C17.4995 13.0321 17.5002 12.5468 17.5002 11.833V7.08303C17.5002 6.66952 17.4984 6.54347 17.4859 6.44882C17.3875 5.70093 16.7989 5.11241 16.0511 5.01395Z" fill="currentcolor"/>
</svg>
