<svg viewBox="0 0 26 26" fill="none" xmlns="http://www.w3.org/2000/svg">
<path fill-rule="evenodd" clip-rule="evenodd" d="M10.7525 4.58062C11.4277 4.55535 12.076 4.84648 12.5057 5.36789C12.8513 5.78739 12.931 6.30429 12.965 6.68141C13.0003 7.07402 13.0003 7.57414 13.0002 8.14438V17.8557C13.0003 18.4259 13.0003 18.926 12.965 19.3186C12.931 19.6958 12.8513 20.2127 12.5057 20.6322C12.076 21.1536 11.4277 21.4447 10.7525 21.4194C10.2093 21.3991 9.77005 21.1152 9.46564 20.8901C9.14873 20.6556 8.77494 20.3233 8.34875 19.9445L2.87683 15.0805C2.64885 14.8779 2.42966 14.6831 2.2597 14.504C2.07522 14.3095 1.87229 14.057 1.75321 13.7178C1.59008 13.2532 1.59008 12.7469 1.75321 12.2822C1.87229 11.9431 2.07522 11.6905 2.2597 11.4961C2.42965 11.3169 2.64883 11.1221 2.87681 10.9195C2.88606 10.9113 2.89533 10.9031 2.90461 10.8948L8.34877 6.05557C8.77495 5.6767 9.14873 5.34442 9.46564 5.10998C9.77005 4.8848 10.2093 4.60095 10.7525 4.58062Z" fill="currentcolor"/>
<path fill-rule="evenodd" clip-rule="evenodd" d="M22.6692 4.58062C23.3443 4.55535 23.9927 4.84648 24.4223 5.36789C24.768 5.78739 24.8477 6.30429 24.8816 6.68141C24.9169 7.07402 24.9169 7.57414 24.9169 8.14438V17.8557C24.9169 18.4259 24.9169 18.926 24.8816 19.3186C24.8477 19.6958 24.768 20.2127 24.4223 20.6322C23.9927 21.1536 23.3443 21.4447 22.6692 21.4194C22.126 21.3991 21.6867 21.1152 21.3823 20.8901C21.0654 20.6556 20.6916 20.3233 20.2654 19.9445L14.7935 15.0805C14.5655 14.8779 14.3463 14.6831 14.1764 14.504C13.9919 14.3095 13.789 14.057 13.6699 13.7178C13.5067 13.2532 13.5067 12.7469 13.6699 12.2822C13.789 11.9431 13.9919 11.6905 14.1764 11.4961C14.3463 11.3169 14.5655 11.1221 14.7935 10.9195C14.8027 10.9113 14.812 10.9031 14.8213 10.8948L20.2654 6.05557C20.6916 5.6767 21.0654 5.34442 21.3823 5.10998C21.6867 4.8848 22.126 4.60095 22.6692 4.58062Z" fill="currentcolor"/>
</svg>
