<svg viewBox="0 0 20 21" fill="none" xmlns="http://www.w3.org/2000/svg">
<path fill-rule="evenodd" clip-rule="evenodd" d="M9.58317 2.16699C5.21092 2.16699 1.6665 5.7114 1.6665 10.0837C1.6665 14.4559 5.21092 18.0003 9.58317 18.0003C11.4691 18.0003 13.2011 17.3409 14.5609 16.2399L16.9106 18.5896C17.236 18.915 17.7637 18.915 18.0891 18.5896C18.4145 18.2641 18.4145 17.7365 18.0891 17.4111L15.7394 15.0614C16.8404 13.7015 17.4998 11.9696 17.4998 10.0837C17.4998 5.7114 13.9554 2.16699 9.58317 2.16699ZM3.33317 10.0837C3.33317 6.63188 6.13139 3.83366 9.58317 3.83366C13.035 3.83366 15.8332 6.63188 15.8332 10.0837C15.8332 13.5354 13.035 16.3337 9.58317 16.3337C6.13139 16.3337 3.33317 13.5354 3.33317 10.0837Z" fill="currentcolor"/>
</svg>
