<svg viewBox="0 0 16 16" fill="none" xmlns="http://www.w3.org/2000/svg">
<path fill-rule="evenodd" clip-rule="evenodd" d="M12.8574 10.6407C12.8182 10.4245 12.8447 10.2014 12.9334 10.0003C13.0179 9.80315 13.1582 9.63498 13.3371 9.51653C13.516 9.39808 13.7256 9.33451 13.9401 9.33366H14.0001C14.3537 9.33366 14.6928 9.19318 14.9429 8.94313C15.1929 8.69309 15.3334 8.35395 15.3334 8.00033C15.3334 7.6467 15.1929 7.30756 14.9429 7.05752C14.6928 6.80747 14.3537 6.66699 14.0001 6.66699H13.8867C13.6722 6.66614 13.4626 6.60257 13.2838 6.48412C13.1049 6.36567 12.9646 6.1975 12.8801 6.00033V5.94699C12.7913 5.74591 12.7649 5.52286 12.8041 5.3066C12.8433 5.09034 12.9464 4.89078 13.1001 4.73366L13.1401 4.69366C13.264 4.56983 13.3624 4.42278 13.4295 4.26091C13.4966 4.09905 13.5311 3.92555 13.5311 3.75033C13.5311 3.5751 13.4966 3.4016 13.4295 3.23974C13.3624 3.07787 13.264 2.93082 13.1401 2.80699C13.0162 2.68302 12.8692 2.58468 12.7073 2.51758C12.5455 2.45048 12.372 2.41594 12.1967 2.41594C12.0215 2.41594 11.848 2.45048 11.6862 2.51758C11.5243 2.58468 11.3772 2.68302 11.2534 2.80699L11.2134 2.84699C11.0563 3.00068 10.8567 3.10378 10.6405 3.143C10.4242 3.18221 10.2012 3.15574 10.0001 3.06699C9.8029 2.98248 9.63474 2.84216 9.51629 2.6633C9.39784 2.48444 9.33427 2.27485 9.33341 2.06033V2.00033C9.33341 1.6467 9.19294 1.30756 8.94289 1.05752C8.69284 0.807468 8.3537 0.666992 8.00008 0.666992C7.64646 0.666992 7.30732 0.807468 7.05727 1.05752C6.80722 1.30756 6.66675 1.6467 6.66675 2.00033V2.11366C6.66589 2.32818 6.60233 2.53778 6.48388 2.71664C6.36543 2.8955 6.19726 3.03582 6.00008 3.12033H5.94675C5.74567 3.20907 5.52262 3.23554 5.30635 3.19633C5.09009 3.15712 4.89053 3.05402 4.73341 2.90033L4.69341 2.86033C4.56958 2.73636 4.42253 2.63801 4.26067 2.57091C4.0988 2.50381 3.9253 2.46928 3.75008 2.46928C3.57486 2.46928 3.40136 2.50381 3.23949 2.57091C3.07763 2.63801 2.93058 2.73636 2.80675 2.86033C2.68278 2.98416 2.58443 3.13121 2.51733 3.29307C2.45024 3.45494 2.4157 3.62844 2.4157 3.80366C2.4157 3.97888 2.45024 4.15238 2.51733 4.31425C2.58443 4.47611 2.68278 4.62316 2.80675 4.74699L2.84675 4.78699C3.00044 4.94411 3.10354 5.14367 3.14275 5.35993C3.18196 5.5762 3.15549 5.79925 3.06675 6.00033C2.99056 6.20748 2.85381 6.38693 2.67428 6.51533C2.49475 6.64374 2.28074 6.71516 2.06008 6.72032H2.00008C1.64646 6.72032 1.30732 6.8608 1.05727 7.11085C0.807224 7.3609 0.666748 7.70004 0.666748 8.05366C0.666748 8.40728 0.807224 8.74642 1.05727 8.99647C1.30732 9.24652 1.64646 9.38699 2.00008 9.38699H2.11341C2.32794 9.38785 2.53753 9.45141 2.71639 9.56986C2.89525 9.68831 3.03557 9.85648 3.12008 10.0537C3.20882 10.2547 3.2353 10.4778 3.19608 10.6941C3.15687 10.9103 3.05377 11.1099 2.90008 11.267L2.86008 11.307C2.73611 11.4308 2.63777 11.5779 2.57067 11.7397C2.50357 11.9016 2.46903 12.0751 2.46903 12.2503C2.46903 12.4255 2.50357 12.599 2.57067 12.7609C2.63777 12.9228 2.73611 13.0698 2.86008 13.1937C2.98391 13.3176 3.13096 13.416 3.29283 13.4831C3.45469 13.5502 3.62819 13.5847 3.80341 13.5847C3.97864 13.5847 4.15214 13.5502 4.314 13.4831C4.47587 13.416 4.62292 13.3176 4.74675 13.1937L4.78675 13.1537C4.94387 13 5.14343 12.8969 5.35969 12.8577C5.57595 12.8184 5.799 12.8449 6.00008 12.9337C6.20724 13.0098 6.38668 13.1466 6.51509 13.3261C6.64349 13.5057 6.71492 13.7197 6.72008 13.9403V14.0003C6.72008 14.3539 6.86056 14.6931 7.11061 14.9431C7.36065 15.1932 7.69979 15.3337 8.05341 15.3337C8.40704 15.3337 8.74617 15.1932 8.99622 14.9431C9.24627 14.6931 9.38675 14.3539 9.38675 14.0003V13.887C9.3876 13.6725 9.45117 13.4629 9.56962 13.284C9.68807 13.1052 9.85623 12.9648 10.0534 12.8803C10.2545 12.7916 10.4775 12.7651 10.6938 12.8043C10.9101 12.8435 11.1096 12.9466 11.2667 13.1003L11.3067 13.1403C11.4306 13.2643 11.5776 13.3626 11.7395 13.4297C11.9014 13.4968 12.0749 13.5314 12.2501 13.5314C12.4253 13.5314 12.5988 13.4968 12.7607 13.4297C12.9225 13.3626 13.0696 13.2643 13.1934 13.1403C13.3174 13.0165 13.4157 12.8694 13.4828 12.7076C13.5499 12.5457 13.5845 12.3722 13.5845 12.197C13.5845 12.0218 13.5499 11.8483 13.4828 11.6864C13.4157 11.5245 13.3174 11.3775 13.1934 11.2537L13.1534 11.2137C12.9997 11.0565 12.8966 10.857 12.8574 10.6407ZM10.0001 8.00033C10.0001 9.10489 9.10465 10.0003 8.00008 10.0003C6.89551 10.0003 6.00008 9.10489 6.00008 8.00033C6.00008 6.89576 6.89551 6.00033 8.00008 6.00033C9.10465 6.00033 10.0001 6.89576 10.0001 8.00033Z" fill="currentcolor"/>
</svg>
