<svg viewBox="0 0 32 32" fill="none" xmlns="http://www.w3.org/2000/svg">
<path d="M24.9426 3.05752C24.4219 2.53682 23.5777 2.53682 23.057 3.05752C22.5363 3.57822 22.5363 4.42244 23.057 4.94313L24.781 6.66713L24.5825 6.66706C23.5016 6.66641 22.6859 6.66593 21.9241 6.89727C21.2532 7.10101 20.6291 7.43503 20.0875 7.88022C19.4724 8.38572 19.0203 9.06473 18.4213 9.96444L11.4571 20.4109C10.7164 21.522 10.4888 21.8388 10.219 22.0606C9.94816 22.2832 9.6361 22.4502 9.30066 22.5521C8.96648 22.6535 8.57663 22.6671 7.24133 22.6671H3.99984C3.26346 22.6671 2.6665 23.2641 2.6665 24.0005C2.6665 24.7368 3.26346 25.3338 3.99984 25.3338L7.41715 25.3339C8.49805 25.3345 9.31379 25.335 10.0756 25.1037C10.7464 24.8999 11.3706 24.5659 11.9122 24.1207C12.5273 23.6152 12.9793 22.9362 13.5784 22.0365L20.5426 11.59C21.2833 10.4789 21.5109 10.1621 21.7807 9.94034C22.0515 9.71774 22.3636 9.55073 22.699 9.44886C23.0332 9.34738 23.423 9.3338 24.7583 9.3338H24.7808L23.057 11.0575C22.5363 11.5782 22.5363 12.4224 23.057 12.9431C23.5777 13.4638 24.4219 13.4638 24.9426 12.9431L28.9426 8.94314C29.4633 8.42244 29.4633 7.57822 28.9426 7.05752L24.9426 3.05752Z" fill="currentcolor"/>
<path d="M24.9426 19.0575C24.4219 18.5368 23.5777 18.5368 23.057 19.0575C22.5363 19.5782 22.5363 20.4224 23.057 20.9431L24.781 22.6671H24.7583C23.423 22.6671 23.0332 22.6535 22.699 22.5521C22.3636 22.4502 22.0515 22.2832 21.7807 22.0606C21.5109 21.8388 21.2833 21.522 20.5426 20.4109L20.2204 19.9275C19.8119 19.3148 18.9841 19.1493 18.3713 19.5577C17.7586 19.9662 17.5931 20.794 18.0015 21.4067L18.4213 22.0365C19.0203 22.9362 19.4724 23.6152 20.0875 24.1207C20.6291 24.5659 21.2532 24.8999 21.9241 25.1037C22.6859 25.335 23.5016 25.3345 24.5825 25.3339L24.7808 25.3338L23.057 27.0575C22.5363 27.5782 22.5363 28.4224 23.057 28.9431C23.5777 29.4638 24.4219 29.4638 24.9426 28.9431L28.9426 24.9431C29.4633 24.4224 29.4633 23.5782 28.9426 23.0575L24.9426 19.0575Z" fill="currentcolor"/>
<path d="M9.30066 9.44886C8.96648 9.34738 8.57663 9.3338 7.24133 9.3338H3.99984C3.26346 9.3338 2.6665 8.73684 2.6665 8.00046C2.6665 7.26408 3.26346 6.66713 3.99984 6.66713L7.41715 6.66706C8.49804 6.66641 9.31379 6.66593 10.0756 6.89727C10.7464 7.10101 11.3706 7.43503 11.9122 7.88022C12.5273 8.38572 12.9793 9.06473 13.5784 9.96445L13.9981 10.5942C14.4066 11.2069 14.241 12.0347 13.6283 12.4432C13.0156 12.8517 12.1878 12.6861 11.7793 12.0734L11.4571 11.59C10.7164 10.4789 10.4888 10.1621 10.219 9.94034C9.94816 9.71774 9.6361 9.55073 9.30066 9.44886Z" fill="currentcolor"/>
</svg>
