<svg viewBox="0 0 16 16" fill="none" xmlns="http://www.w3.org/2000/svg">
<path fill-rule="evenodd" clip-rule="evenodd" d="M11.4043 10.2583C11.5696 9.92933 11.9703 9.7966 12.2993 9.96187C13.3889 10.5092 14.31 11.3807 14.9766 12.4545C15.0776 12.6171 15.2246 12.8344 15.2702 13.1288C15.3191 13.444 15.2335 13.7454 15.1061 13.9746C14.9786 14.2038 14.7676 14.4354 14.4741 14.5602C14.1949 14.6788 13.8913 14.6663 13.6667 14.6663C13.2985 14.6663 13.0001 14.3679 13.0001 13.9997C13.0001 13.6315 13.2985 13.333 13.6667 13.333C13.8102 13.333 13.8856 13.3326 13.9395 13.3289L13.9409 13.3265C13.9536 13.3035 13.8568 13.1786 13.8438 13.1577C13.2956 12.2746 12.5524 11.5811 11.7008 11.1533C11.3718 10.988 11.2391 10.5873 11.4043 10.2583Z" fill="currentcolor"/>
<path fill-rule="evenodd" clip-rule="evenodd" d="M10.0697 2.01483C10.2336 1.68511 10.6337 1.55065 10.9634 1.7145C12.1691 2.31369 13.0001 3.55903 13.0001 4.99967C13.0001 6.44032 12.1691 7.68566 10.9634 8.28484C10.6337 8.4487 10.2336 8.31424 10.0697 7.98452C9.90586 7.6548 10.0403 7.25468 10.37 7.09083C11.14 6.70821 11.6667 5.91485 11.6667 4.99967C11.6667 4.0845 11.14 3.29114 10.37 2.90852C10.0403 2.74467 9.90586 2.34455 10.0697 2.01483Z" fill="currentcolor"/>
<path fill-rule="evenodd" clip-rule="evenodd" d="M2.66673 4.99967C2.66673 2.97463 4.30835 1.33301 6.33339 1.33301C8.35844 1.33301 10.0001 2.97463 10.0001 4.99967C10.0001 7.02472 8.35844 8.66634 6.33339 8.66634C4.30835 8.66634 2.66673 7.02472 2.66673 4.99967Z" fill="currentcolor"/>
<path fill-rule="evenodd" clip-rule="evenodd" d="M6.33339 9.33301C8.46422 9.33301 10.3691 10.5358 11.5315 12.2797C11.6339 12.4334 11.7431 12.5972 11.8194 12.753C11.9113 12.9404 11.9773 13.1557 11.9619 13.4129C11.9496 13.618 11.8816 13.8083 11.8007 13.9593C11.7198 14.1104 11.5991 14.2725 11.4352 14.3965C11.2157 14.5625 10.9791 14.6207 10.77 14.645C10.5858 14.6664 10.3677 14.6664 10.148 14.6663C7.60592 14.6659 5.06185 14.6659 2.51877 14.6663C2.29908 14.6664 2.08098 14.6664 1.89682 14.645C1.68769 14.6207 1.4511 14.5625 1.23155 14.3965C1.06767 14.2725 0.947017 14.1104 0.866122 13.9593C0.785227 13.8083 0.717192 13.618 0.704881 13.4129C0.689445 13.1557 0.755445 12.9404 0.847343 12.753C0.923695 12.5972 1.0329 12.4334 1.13531 12.2798C2.2977 10.5358 4.20257 9.33301 6.33339 9.33301Z" fill="currentcolor"/>
</svg>
